<?xml version="1.0" standalone="no"?><!DOCTYPE svg PUBLIC "-//W3C//DTD SVG 1.1//EN" "http://www.w3.org/Graphics/SVG/1.1/DTD/svg11.dtd"><svg t="1624072922342" class="icon" viewBox="0 0 1024 1024" version="1.1" xmlns="http://www.w3.org/2000/svg" p-id="2112" xmlns:xlink="http://www.w3.org/1999/xlink" width="32" height="32"><defs><style type="text/css"></style></defs><path d="M188.652964 324.144062a197.632 131.754667 19.9 1 0 89.693188-247.774697 197.632 131.754667 19.9 1 0-89.693188 247.774697Z" fill="#13227a" p-id="2113"></path><path d="M419.498667 217.258667c-24.917333 68.266667-128.170667 93.525333-230.741334 56.149333-74.922667-27.306667-128.682667-80.384-142.506666-133.802667C27.306667 206.848 89.258667 288.426667 188.757333 324.266667c102.4 37.376 205.824 12.117333 230.741334-56.149334a96.085333 96.085333 0 0 0 1.706666-57.514666c-0.512 2.389333-1.024 4.437333-1.706666 6.656z" fill="#13227a" p-id="2114"></path><path d="M278.869333 145.237333c70.826667 25.770667 122.709333 74.581333 139.946667 124.757334v-1.706667c24.917333-68.266667-38.058667-153.6-140.629333-191.317333S73.045333 64.853333 48.128 133.290667a98.816 98.816 0 0 0 0 66.56c26.794667-67.072 129.024-91.648 230.741333-54.613334z" fill="#13227a" p-id="2115"></path><path d="M604.529633 268.549144a131.754667 197.632 70 1 0 371.426664-135.18825 131.754667 197.632 70 1 0-371.426664 135.18825Z" fill="#13227a" p-id="2116"></path><path d="M835.242667 273.066667c-102.4 37.376-205.824 12.117333-230.741334-56.149334 0-2.048-1.194667-4.266667-1.706666-6.314666a96.085333 96.085333 0 0 0 1.706666 57.514666c24.917333 68.266667 128.170667 93.525333 230.741334 56.149334 99.498667-36.181333 161.450667-117.76 142.506666-185.002667-13.824 53.589333-67.413333 106.837333-142.506666 133.802667z" fill="#13227a" p-id="2117"></path><path d="M605.354667 270.165333c17.066667-50.176 68.266667-98.986667 139.946666-124.757333 102.4-37.034667 204.8-12.458667 230.058667 54.442667a98.816 98.816 0 0 0 0-66.56c-24.917333-68.266667-128.170667-93.525333-230.741333-56.149334s-164.352 122.88-140.117334 191.317334z" fill="#13227a" p-id="2118"></path><path d="M512 470.186667c100.010667 0 181.077333 159.914667 181.077333 296.448S612.010667 964.266667 512 964.266667s-181.077333-61.269333-181.077333-197.632S411.989333 470.186667 512 470.186667z" fill="#13227a" p-id="2119"></path><path d="M512 538.453333c91.477333 0 166.912 133.973333 179.2 261.12a304.469333 304.469333 0 0 0 1.877333-32.938666c0-136.533333-81.066667-296.448-181.077333-296.448s-181.077333 160.085333-181.077333 296.448a304.469333 304.469333 0 0 0 1.877333 32.938666c12.288-127.146667 87.722667-261.12 179.2-261.12z" fill="#13227a" p-id="2120"></path><path d="M512 896c-91.477333 0-166.912-51.2-179.2-164.522667-1.194667 11.776-1.877333 23.722667-1.877333 35.328 0 136.533333 81.066667 197.632 181.077333 197.632s181.077333-61.269333 181.077333-197.632c0-11.605333 0-23.381333-1.877333-35.328-12.288 113.152-87.722667 164.522667-179.2 164.522667z" fill="#13227a" p-id="2121"></path><path d="M999.936 124.416c-15.018667-41.301333-52.053333-71.168-104.277333-83.797333a279.893333 279.893333 0 0 0-159.232 12.288 279.722667 279.722667 0 0 0-130.048 93.013333c-31.744 43.349333-40.96 89.941333-25.941334 131.242667l1.024 2.218666L512 361.472l-69.461333-82.090667 1.024-2.218666c15.018667-41.301333 5.802667-88.064-25.941334-131.242667a279.722667 279.722667 0 0 0-130.048-93.013333 279.893333 279.893333 0 0 0-159.232-12.288c-52.224 12.8-89.258667 42.496-104.277333 83.797333S18.261333 212.48 50.005333 256a279.722667 279.722667 0 0 0 130.048 93.013333 305.322667 305.322667 0 0 0 103.936 19.114667c59.562667 0 111.104-20.309333 140.629334-57.002667L494.933333 394.069333v51.2c-108.032 15.872-189.610667 179.029333-189.610666 320.682667C305.322667 931.157333 411.989333 989.866667 512 989.866667s206.677333-58.709333 206.677333-223.232c0-141.482667-81.578667-304.810667-189.610666-320.682667v-51.2l70.485333-83.285333c29.525333 36.693333 80.896 57.002667 140.629333 57.002666a305.322667 305.322667 0 0 0 103.936-19.114666A279.722667 279.722667 0 0 0 973.994667 256c31.744-43.52 40.96-90.112 25.941333-131.584z m-604.501333 135.168c-19.626667 54.101333-110.250667 72.704-197.973334 40.96a228.352 228.352 0 0 1-106.154666-75.093333 89.941333 89.941333 0 0 1-19.114667-83.456 89.941333 89.941333 0 0 1 68.266667-51.2A187.733333 187.733333 0 0 1 184.661333 85.333333a251.904 251.904 0 0 1 85.333334 15.701334 228.522667 228.522667 0 0 1 106.154666 75.093333 89.941333 89.941333 0 0 1 19.285334 83.456z m272.042666 507.050667C667.477333 876.032 610.816 938.666667 512 938.666667s-155.477333-62.634667-155.477333-172.032c0-134.144 78.506667-270.848 155.477333-270.848s155.477333 136.704 155.477333 270.848z m265.216-541.184a228.352 228.352 0 0 1-106.154666 75.093333c-87.722667 31.914667-178.346667 13.141333-197.973334-40.96a89.941333 89.941333 0 0 1 19.114667-83.456 228.522667 228.522667 0 0 1 106.154667-75.093333 251.904 251.904 0 0 1 85.333333-15.701334 187.733333 187.733333 0 0 1 44.202667 5.12 89.941333 89.941333 0 0 1 68.266666 51.2 89.941333 89.941333 0 0 1-18.944 83.797334z" fill="#13227a" p-id="2122"></path></svg>